<svg width="41" height="40" viewBox="0 0 41 40" fill="none" xmlns="http://www.w3.org/2000/svg">
<path d="M4.13377 5.79047C5.75516 5.79047 7.06957 4.49423 7.06957 2.89523C7.06957 1.29624 5.75516 0 4.13377 0C2.51237 0 1.19797 1.29624 1.19797 2.89523C1.19797 4.49423 2.51237 5.79047 4.13377 5.79047Z" fill="#E91A1A"/>
<path d="M35.9079 30.6595H32.2879L33.174 32.4541H21.6516L22.5377 30.6595H18.9177L14.3062 40H17.9261L18.6408 38.5525H36.1848L36.8995 40H40.5195L35.9079 30.6595ZM19.6312 36.5465L20.6612 34.4602H34.1644L35.1944 36.5465H19.6312ZM23.5824 2.40727H31.2433C31.9173 2.40727 32.4637 1.86844 32.4637 1.20367C32.4637 0.538906 31.9173 0 31.2433 0H23.5824C22.9083 0 22.3619 0.538828 22.3619 1.20359C22.3619 1.86836 22.9083 2.40727 23.5824 2.40727ZM19.2894 29.0503H23.1405V27.293C23.1405 26.7034 23.6251 26.2255 24.2229 26.2255H30.6026C31.2004 26.2255 31.685 26.7034 31.685 27.293V29.0503H35.5361C38.1074 29.0503 40.1918 26.9946 40.1918 24.4589V8.7468C40.1918 6.21102 38.1074 4.15539 35.5361 4.15539H19.2894C16.7181 4.15539 14.6337 6.21102 14.6337 8.7468V24.4589C14.6338 26.9946 16.7182 29.0503 19.2894 29.0503ZM35.0494 26.5094C33.8518 26.5094 32.881 25.552 32.881 24.3709C32.881 23.1898 33.8518 22.2323 35.0494 22.2323C36.2469 22.2323 37.2178 23.1898 37.2178 24.3709C37.2178 25.552 36.2469 26.5094 35.0494 26.5094ZM17.6078 9.77125C17.6078 8.9718 18.2651 8.32352 19.0758 8.32352H35.7497C36.5605 8.32352 37.2178 8.97172 37.2178 9.77125V16.9102C37.2178 17.7098 36.5606 18.358 35.7497 18.358H19.0758C18.2651 18.358 17.6078 17.7098 17.6078 16.9102V9.77125ZM19.7763 22.2742C20.9739 22.2742 21.9448 23.2316 21.9448 24.4127C21.9448 25.5938 20.9739 26.5512 19.7763 26.5512C18.5787 26.5512 17.6078 25.5938 17.6078 24.4127C17.6078 23.2316 18.5787 22.2742 19.7763 22.2742ZM12.5141 32.6275H6.13302C6.67203 32.3815 7.04682 31.8448 7.04674 31.2205L7.04595 20.3697C7.03415 20.3763 7.02266 20.3834 7.0107 20.3899C5.91881 20.9797 4.54879 20.5848 3.95076 19.508L3.90069 19.4179L3.90157 31.2208C3.90164 31.8449 4.27635 32.3815 4.81536 32.6275H2.25871C2.79915 32.3808 3.17417 31.8418 3.17227 31.216C3.12846 17.965 3.14098 18.8316 3.12648 18.68H3.49097L1.49971 15.0946C1.42152 14.9072 1.11367 14.591 1.22339 14.0845L2.03515 10.3546L2.13291 14.0612C2.13845 14.272 2.19494 14.4785 2.29776 14.6635L4.7489 19.077C5.10436 19.7171 5.92048 19.9556 6.57372 19.6029C7.22491 19.2512 7.46367 18.4455 7.10695 17.8033L4.81219 13.6713L4.72284 10.2855L5.45411 12.9592L7.06964 15.868V8.50945C7.06964 7.5043 6.24338 6.68945 5.22414 6.68945H1.84463C0.825389 6.68945 0 7.5043 0 8.50945V31.2253C0.00190127 31.8479 0.403386 32.3822 0.940812 32.6274H0V40H11.3487V34.9745H12.5141C12.6639 34.9745 12.8077 34.9158 12.9136 34.8113C13.0196 34.7068 13.0792 34.5651 13.0792 34.4173V33.1848C13.0792 33.1116 13.0646 33.0391 13.0362 32.9715C13.0078 32.9039 12.9661 32.8424 12.9137 32.7907C12.8612 32.7389 12.7989 32.6979 12.7303 32.6699C12.6618 32.6419 12.5883 32.6275 12.5141 32.6275Z" fill="#E91A1A"/>
</svg>
